<?xml version="1.0" encoding="UTF-8" standalone="no"?>
<svg
   version="1.1"
   viewBox="-10 0 273 256"
   id="svg1598"
   xmlns="http://www.w3.org/2000/svg"
   xmlns:svg="http://www.w3.org/2000/svg">
  <defs
     id="defs1602" />
  <path
     fill="currentColor"
     d="M77 16q5 8 1 12q-26 30 -49 48q-4 3 -5 2q0 -1 3 -5q21 -18 41 -43q4 -5 5 -11q0 -1 1 -2q-1 -2 0 -2t3 1zM94 152l4 4q9 8 12 11q1 6 -2 7q-6 -1 -8 -9q-2 -4 -7 -12q-2 -3 1 -1zM71 158q-1 -2 1 -1q10 8 13 14l1 1q1 5 -2 7q-7 -2 -13 -21zM53 166q4 0 11 16q1 7 -2 5
q-5 2 -10 -19q-2 -4 1 -2zM29 178q4 12 8 12h3v3q-1 3 3 7q1 4 -3 4t-7 -5q-6 -7 -7 -21v-2q1 0 3 2zM179 46q14 -3 22 12q6 11 12 15q4 7 -1 8q-6 1 -8 11q-9 37 -22 63q-1 3 -3 3q-1 -1 -2 -4q-11 -16 -12 -21q-4 -7 1 -2q8 9 12 11q2 3 4 2t3 -5q14 -38 15 -67
q0 -26 -21 -23q-17 4 -29 9q-3 3 -12 2q-9 17 -19 30q3 5 -3 8q-6 2 -8 7q-6 20 -13 30q-8 11 -23 3q-6 -1 0 -2q13 3 19 -5q9 -12 12 -43q0 -8 -6 -10q-10 1 -27 10q9 8 7 8q0 2 -1 7v3q6 -1 11 -2q4 3 2 5q-3 0 -6 1h-4q-5 1 -4 5v15q5 -3 11 -4q-1 0 2 -1q2 2 1 4
q-21 8 -27 8q0 7 -3 5q-5 -1 -6 -4h-2q-3 -1 -4 -1q-4 -1 -3 -7q2 -3 1 -5q-4 -4 -4 -15q0 -12 -3 -15q-1 -6 7 -13q11 -5 46 -35q3 -2 -1 -2q-1 0 -3 1h-4h-2q0 -1 3 -3q13 -4 18 -8q4 -2 8 -1q1 1 5 2q3 2 5 2q2 2 1 4q0 1 -2 1q-12 1 -26 9q-5 3 -16 12q-17 13 -27 19
q-6 5 -8 10q1 29 19 42q3 -1 9 -4v-18q-11 4 -16 3q-4 1 0 -1l16 -6q0 -14 -3 -19q-6 3 -15 2q-3 -1 0 -2q7 -2 12 -4q14 -6 29 -10q7 -2 12 3q6 8 12 9q14 -20 28 -54q2 -7 1 -17q-1 -2 1 -1q9 11 7 12q-7 14 -14 29q21 -8 39 -11zM175 74q0 2 4 5l5 5q1 2 1 4q-1 1 -2 0
q-7 0 -9 5q-4 4 -9 12q-6 9 -9 12q10 -5 14 -4q2 0 2 1q1 1 0 3q-1 1 -3 2h-2q-8 2 -19 7q-5 4 -11 5h-2q-3 9 -4 18t0 24q0 25 24 31q29 8 78 2q9 -1 6 -9q-1 -2 -3 -7q-2 -7 -3 -12q-2 -3 -4 -11q-4 -13 -6 -20q0 -3 2 0q5 7 10 20q3 7 9 17q4 11 9 18q3 2 0 3
q-47 14 -98 3q-27 -5 -29 -34q-2 -28 8 -65q0 -3 2 0q0 2 0 1q2 8 0 16q10 -4 25 -26q3 -5 6 -9q1 -3 0 -5q-1 -1 -4 0q-5 2 -13 6q-3 2 -9 4q-5 3 -8 3q-8 0 -8 -6q0 -3 2 -1q1 4 15 -1q9 -4 13 -6q2 -1 7 -3q4 0 6 -7q1 -3 7 -1z" 
     id="path1596"
     style="fill:none;stroke:#e90000;stroke-opacity:1" />
  <path
     style="fill:none;stroke:#000000;stroke-width:1px;stroke-linecap:butt;stroke-linejoin:miter;stroke-opacity:1"
     d="M 80.516256 18.20184 Q60 55 22.852967 80.410775, M80 45 110 35,M110 35 120 40,M115 40 90 50,M90 50 Q100 45 40 90,M42 87 Q40 120 60 140,M50 90 Q55 95 100 77,M98 76 Q110 100 90 140,M90 140 Q 83 145 70 135,M54 116 88 105,M72 90 73 132,M60 138 88 128,M27 178 Q27 185 40 202,M53 167 63 186,M73 158 85 178,M95 153 109 172,M148 18 Q153 35 120 88,M137 58 187 46,M185 45 Q220 67 180 155,M182 155 164 130,M127 95 Q135 98 175 80,M174 80 178 85,M178 84 150 120,M133 130 170 115,M135 110 Q125 150 132 190,M132 188 Q160 225 250 205,M250 205 225 150"
     id="path2270" />

</svg>
