<?xml version="1.0" encoding="UTF-8" standalone="no"?>
<svg
   version="1.1"
   viewBox="-10 0 273 256"
   id="svg1598"
   xmlns="http://www.w3.org/2000/svg"
   xmlns:svg="http://www.w3.org/2000/svg">
  <defs
     id="defs1602" />
  <path
     fill="currentColor"
     d="M166 32q5 5 -1 8q-6 2 -10 6q-15 15 -24 20q9 -1 15 -2q3 1 2 3q-2 3 -5 3q-10 2 -17 6q-4 3 -11 3q-11 1 -25 8q-5 3 -4 0q-3 -2 0 -4q3 -1 5 -3q-9 -17 -11 -28q-1 -2 -2 -6t-2 -7v-2q1 -1 3 0v2q1 2 3 3q23 -2 59 -15q8 -2 14 -1q3 2 11 6zM146 30q-22 7 -40 13
q-13 4 -24 1q7 13 15 33q2 0 4 -1q11 -4 15 -5q23 -14 34 -36q2 -4 -4 -5zM176 98q3 2 3 4q-1 3 -4 2q-31 -4 -60 13q-5 3 -2 6q4 5 9 7q4 0 7 17q11 -4 15 -8q-2 -4 20 1q2 1 2 4q-1 1 -3 1q-13 0 -33 7q0 31 -1 34q-1 4 -3 4q-2 1 -3 -3q-6 -13 -4 -17q3 -3 2 -16
q-15 5 -20 8q-8 4 -20 0q-5 -1 0 -2h1q21 -3 39 -10q-1 -17 -10 -23q-5 -4 0 -8q1 -2 7 -6q-4 2 2 -2l-15 5q-10 3 -15 4q-6 3 -21 0q-4 -1 1 -2q35 -5 76 -17h1q6 -3 8 -7q-1 -3 21 4zM199 184q5 6 16 10q21 10 23 11q0 3 -4 7q-3 0 -12 -6q-16 -8 -22 -10q-7 -2 -23 -2
q-26 0 -43 1t-37 4q-39 5 -53 11q-2 0 -3 1q-5 3 -6 1q-2 0 -6 -2h-3q-2 -1 0 -1q10 0 23 -3q20 -4 48 -9q33 -6 91 -6q-1 -3 4 -6q1 0 2 -1q3 -2 5 0z" 
     id="path1596"
     style="fill:none;stroke:#e90000;stroke-opacity:1" />
  <path
     style="fill:none;stroke:#000000;stroke-width:1px;stroke-linecap:butt;stroke-linejoin:miter;stroke-opacity:1"
     d="M80 40 Q82 55 95 80,M80 43 Q85 47 150 28,M150 28 160 35,130 65,M95 80 145 67,M70 120 Q175 95 175 100,M126 107 111 120,Q124 137 125 136,M125 135 125 185,M85 163 Q150 142 160 142,M28 210 Q110 192 200 193,M195 190 235 210"
     id="path2270" />

</svg>
